HIERARCHY
ROOT hip
{
  OFFSET 0 90.174 2.4664
  CHANNELS 6 Xposition Yposition Zposition Zrotation Xrotation Yrotation
  JOINT abdomen
  {
    OFFSET 0 -1.186 -1.5018
    CHANNELS 6 Xposition Yposition Zposition Zrotation Xrotation Yrotation
    JOINT abdomen2
    {
      OFFSET 0 9.964 0.2134
      CHANNELS 6 Xposition Yposition Zposition Zrotation Xrotation Yrotation
      JOINT chest
      {
        OFFSET 0 13.134 -3.2573
        CHANNELS 6 Xposition Yposition Zposition Zrotation Xrotation Yrotation
        JOINT neck
        {
          OFFSET 0 20.686 -1.6905
          CHANNELS 6 Xposition Yposition Zposition Zrotation Xrotation Yrotation
          JOINT head
          {
            OFFSET 0 7.238 -0.1237
            CHANNELS 6 Xposition Yposition Zposition Zrotation Xrotation Yrotation
            End Site
            {
              OFFSET 0 0 0
            }
          }
        }
        JOINT lCollar
        {
          OFFSET 1.7069 20.075 5.0056
          CHANNELS 6 Xposition Yposition Zposition Zrotation Xrotation Yrotation
          JOINT lShldr
          {
            OFFSET 13.6458 -0.047 -4.849
            CHANNELS 6 Xposition Yposition Zposition Zrotation Xrotation Yrotation
            JOINT lForeArm
            {
              OFFSET 28.3255 -0.9759 2.2888
              CHANNELS 6 Xposition Yposition Zposition Zrotation Xrotation Yrotation
              JOINT lHand
              {
                OFFSET 22.1583 -0.53 10.8316
                CHANNELS 6 Xposition Yposition Zposition Zrotation Xrotation Yrotation
                JOINT lThumb1
                {
                  OFFSET 0.786 0.112 2.5817
                  CHANNELS 6 Xposition Yposition Zposition Zrotation Xrotation Yrotation
                  JOINT lThumb2
                  {
                    OFFSET 0.3601 -0.878 4.2331
                    CHANNELS 6 Xposition Yposition Zposition Zrotation Xrotation Yrotation
                    JOINT lThumb2_End
                    {
                      OFFSET 1.8127 -1.216 2.2227
                      CHANNELS 6 Xposition Yposition Zposition Zrotation Xrotation Yrotation
                      End Site
                      {
                        OFFSET 0.0181 -0.0122 0.0222
                      }
                    }
                  }
                }
                JOINT lCarpal1
                {
                  OFFSET 0.9571 1.114 1.7695
                  CHANNELS 6 Xposition Yposition Zposition Zrotation Xrotation Yrotation
                  JOINT lIndex1
                  {
                    OFFSET 4.1246 0.487 4.1451
                    CHANNELS 6 Xposition Yposition Zposition Zrotation Xrotation Yrotation
                    JOINT lIndex2
                    {
                      OFFSET 3.4052 -1.454 2.7682
                      CHANNELS 6 Xposition Yposition Zposition Zrotation Xrotation Yrotation
                      JOINT lIndex2_End
                      {
                        OFFSET 1.4531 -1.795 1.2713
                        CHANNELS 6 Xposition Yposition Zposition Zrotation Xrotation Yrotation
                        End Site
                        {
                          OFFSET 0.0145 -0.0179 0.0127
                        }
                      }
                    }
                  }
                  JOINT lMid1
                  {
                    OFFSET 5.6954 0.21 2.1184
                    CHANNELS 6 Xposition Yposition Zposition Zrotation Xrotation Yrotation
                    JOINT lMid2
                    {
                      OFFSET 3.9766 -1.54 2.3863
                      CHANNELS 6 Xposition Yposition Zposition Zrotation Xrotation Yrotation
                      JOINT lMid2_End
                      {
                        OFFSET 1.4042 -1.926 1.125
                        CHANNELS 6 Xposition Yposition Zposition Zrotation Xrotation Yrotation
                        End Site
                        {
                          OFFSET 0.014 -0.0193 0.0113
                        }
                      }
                    }
                  }
                }
                JOINT lCarpal2
                {
                  OFFSET 2.0956 0.66 -0.3894
                  CHANNELS 6 Xposition Yposition Zposition Zrotation Xrotation Yrotation
                  JOINT lRing1
                  {
                    OFFSET 5.0395 -0.09 2.4971
                    CHANNELS 6 Xposition Yposition Zposition Zrotation Xrotation Yrotation
                    JOINT lRing2
                    {
                      OFFSET 3.7921 -1.552 1.4806
                      CHANNELS 6 Xposition Yposition Zposition Zrotation Xrotation Yrotation
                      JOINT lRing2_End
                      {
                        OFFSET 1.4655 -1.808 0.9609
                        CHANNELS 6 Xposition Yposition Zposition Zrotation Xrotation Yrotation
                        End Site
                        {
                          OFFSET 0.0147 -0.0181 0.0096
                        }
                      }
                    }
                  }
                  JOINT lPinky1
                  {
                    OFFSET 4.9141 -1.269 0.3591
                    CHANNELS 6 Xposition Yposition Zposition Zrotation Xrotation Yrotation
                    JOINT lPinky2
                    {
                      OFFSET 3.1477 -1.685 0.8462
                      CHANNELS 6 Xposition Yposition Zposition Zrotation Xrotation Yrotation
                      JOINT lPinky2_End
                      {
                        OFFSET 0.8055 -1.585 0.7955
                        CHANNELS 6 Xposition Yposition Zposition Zrotation Xrotation Yrotation
                        End Site
                        {
                          OFFSET 0.0081 -0.0158 0.008
                        }
                      }
                    }
                  }
                }
              }
            }
          }
        }
        JOINT rCollar
        {
          OFFSET -1.7069 20.075 5.0056
          CHANNELS 6 Xposition Yposition Zposition Zrotation Xrotation Yrotation
          JOINT rShldr
          {
            OFFSET -13.6458 -0.047 -4.849
            CHANNELS 6 Xposition Yposition Zposition Zrotation Xrotation Yrotation
            JOINT rForeArm
            {
              OFFSET -28.3255 -0.9759 2.2888
              CHANNELS 6 Xposition Yposition Zposition Zrotation Xrotation Yrotation
              JOINT rHand
              {
                OFFSET -22.1583 -0.53 10.8316
                CHANNELS 6 Xposition Yposition Zposition Zrotation Xrotation Yrotation
                JOINT rThumb1
                {
                  OFFSET -0.786 0.112 2.5817
                  CHANNELS 6 Xposition Yposition Zposition Zrotation Xrotation Yrotation
                  JOINT rThumb2
                  {
                    OFFSET -0.3601 -0.878 4.2331
                    CHANNELS 6 Xposition Yposition Zposition Zrotation Xrotation Yrotation
                    JOINT rThumb2_End
                    {
                      OFFSET -1.8127 -1.216 2.2227
                      CHANNELS 6 Xposition Yposition Zposition Zrotation Xrotation Yrotation
                      End Site
                      {
                        OFFSET -0.0181 -0.0122 0.0222
                      }
                    }
                  }
                }
                JOINT rCarpal1
                {
                  OFFSET -0.9571 1.114 1.7695
                  CHANNELS 6 Xposition Yposition Zposition Zrotation Xrotation Yrotation
                  JOINT rIndex1
                  {
                    OFFSET -4.1246 0.487 4.1451
                    CHANNELS 6 Xposition Yposition Zposition Zrotation Xrotation Yrotation
                    JOINT rIndex2
                    {
                      OFFSET -3.4052 -1.454 2.7682
                      CHANNELS 6 Xposition Yposition Zposition Zrotation Xrotation Yrotation
                      JOINT rIndex2_End
                      {
                        OFFSET -1.4531 -1.795 1.2713
                        CHANNELS 6 Xposition Yposition Zposition Zrotation Xrotation Yrotation
                        End Site
                        {
                          OFFSET -0.0145 -0.018 0.0127
                        }
                      }
                    }
                  }
                  JOINT rMid1
                  {
                    OFFSET -5.6954 0.21 2.1184
                    CHANNELS 6 Xposition Yposition Zposition Zrotation Xrotation Yrotation
                    JOINT rMid2
                    {
                      OFFSET -3.9766 -1.54 2.3863
                      CHANNELS 6 Xposition Yposition Zposition Zrotation Xrotation Yrotation
                      JOINT rMid2_End
                      {
                        OFFSET -1.4042 -1.926 1.125
                        CHANNELS 6 Xposition Yposition Zposition Zrotation Xrotation Yrotation
                        End Site
                        {
                          OFFSET -0.014 -0.0193 0.0113
                        }
                      }
                    }
                  }
                }
                JOINT rCarpal2
                {
                  OFFSET -2.0956 0.66 -0.3894
                  CHANNELS 6 Xposition Yposition Zposition Zrotation Xrotation Yrotation
                  JOINT rRing1
                  {
                    OFFSET -5.0395 -0.09 2.4971
                    CHANNELS 6 Xposition Yposition Zposition Zrotation Xrotation Yrotation
                    JOINT rRing2
                    {
                      OFFSET -3.7921 -1.552 1.4806
                      CHANNELS 6 Xposition Yposition Zposition Zrotation Xrotation Yrotation
                      JOINT rRing2_End
                      {
                        OFFSET -1.4655 -1.808 0.9609
                        CHANNELS 6 Xposition Yposition Zposition Zrotation Xrotation Yrotation
                        End Site
                        {
                          OFFSET -0.0147 -0.0181 0.0096
                        }
                      }
                    }
                  }
                  JOINT rPinky1
                  {
                    OFFSET -4.9141 -1.269 0.3592
                    CHANNELS 6 Xposition Yposition Zposition Zrotation Xrotation Yrotation
                    JOINT rPinky2
                    {
                      OFFSET -3.1477 -1.685 0.8462
                      CHANNELS 6 Xposition Yposition Zposition Zrotation Xrotation Yrotation
                      JOINT rPinky2_End
                      {
                        OFFSET -0.8055 -1.585 0.7955
                        CHANNELS 6 Xposition Yposition Zposition Zrotation Xrotation Yrotation
                        End Site
                        {
                          OFFSET -0.0081 -0.0158 0.008
                        }
                      }
                    }
                  }
                }
              }
            }
          }
        }
      }
    }
  }
  JOINT lThigh
  {
    OFFSET 8.367 -8.2066 0.5982
    CHANNELS 6 Xposition Yposition Zposition Zrotation Xrotation Yrotation
    JOINT lShin
    {
      OFFSET 2.1923 -43.463 -0.4932
      CHANNELS 6 Xposition Yposition Zposition Zrotation Xrotation Yrotation
      JOINT lFoot
      {
        OFFSET 0.7333 -45.8593 -2.6451
        CHANNELS 6 Xposition Yposition Zposition Zrotation Xrotation Yrotation
        End Site
        {
          OFFSET 2.6618 -4.2699 12.3931
        }
      }
    }
  }
  JOINT rThigh
  {
    OFFSET -8.367 -8.2066 0.5982
    CHANNELS 6 Xposition Yposition Zposition Zrotation Xrotation Yrotation
    JOINT rShin
    {
      OFFSET -2.1923 -43.463 -0.4931
      CHANNELS 6 Xposition Yposition Zposition Zrotation Xrotation Yrotation
      JOINT rFoot
      {
        OFFSET -0.7333 -45.8593 -2.6451
        CHANNELS 6 Xposition Yposition Zposition Zrotation Xrotation Yrotation
        End Site
        {
          OFFSET -2.6618 -4.2699 12.3931
        }
      }
    }
  }
}
MOTION
Frames:	4
Frame Time:	0.0333333
42.3186 26.9079 -3.94336 -0.00777733 -52.8171 179.996 7.10543e-015 -1.186 -1.5018 -0.187662 8.09174 -0.139771 0 9.964 0.2134 -0.360636 16.1839 -0.256353 0 13.134 -3.2573 -0.360636 16.1839 -0.256353 -7.10543e-015 20.686 -1.6905 -4.2458e-005 -43.0949 -2.97909e-005 -7.10543e-015 7.238 -0.1237 -3.4277e-008 -26.8771 -8.16621e-008 1.7069 20.075 5.0056 2.47789 -10.8222 -65.4241 13.6458 -0.047 -4.849 1.63546 -3.86964 0.425232 28.3255 -0.9759 2.2888 -1.87928 -11.0375 9.96366 22.1583 -0.53 10.8316 51.1252 -29.1919 4.66324 0.786 0.112 2.5817 7.51908e-007 -1.50248e-006 -2.32805e-007 0.3601 -0.878 4.2331 -1.50382e-006 3.00496e-006 4.65609e-007 1.8127 -1.216 2.2227 7.51908e-007 -1.50248e-006 -2.32805e-007 0.9571 1.114 1.7695 -1.59028e-015 -3.18055e-015 -3.18055e-015 4.1246 0.487 4.1451 7.51908e-007 -1.50248e-006 -2.32805e-007 3.4052 -1.454 2.7682 -1.50382e-006 3.00496e-006 4.65609e-007 1.4531 -1.795 1.2713 7.51908e-007 -1.50248e-006 -2.32805e-007 5.6954 0.21 2.1184 7.51908e-007 -1.50248e-006 -2.32805e-007 3.9766 -1.54 2.3863 -1.50382e-006 3.00496e-006 4.65609e-007 1.4042 -1.926 1.125 7.51908e-007 -1.50248e-006 -2.32805e-007 2.0956 0.66 -0.3894 -1.59028e-015 -3.18055e-015 -3.18055e-015 5.0395 -0.09 2.4971 7.51908e-007 -1.50248e-006 -2.32805e-007 3.7921 -1.552 1.4806 -1.50382e-006 3.00496e-006 4.65609e-007 1.4655 -1.808 0.9609 7.51908e-007 -1.50248e-006 -2.32805e-007 4.9141 -1.269 0.3591 7.51908e-007 -1.50248e-006 -2.32805e-007 3.1477 -1.685 0.8462 -1.50382e-006 3.00496e-006 4.65609e-007 0.8055 -1.585 0.7955 7.51908e-007 -1.50248e-006 -2.32805e-007 -1.7069 20.075 5.0056 -1.14869 -9.10429 60.2735 -13.6458 -0.047 -4.849 -2.02953 -4.2333 13.7577 -28.3255 -0.9759 2.2888 -2.30915 -11.3052 -9.76209 -22.1583 -0.53 10.8316 -58.4323 -22.1753 -11.3516 -0.786 0.112 2.5817 -3.1478e-008 -1.8942e-006 2.2414e-007 -0.3601 -0.878 4.2331 -1.79458e-006 2.27625e-006 1.19995e-005 -1.8127 -1.216 2.2227 -3.14782e-008 -1.8942e-006 2.2414e-007 -0.9571 1.114 1.7695 -4.77083e-015 0 3.18055e-015 -4.1246 0.487 4.1451 -3.1478e-008 -1.8942e-006 2.2414e-007 -3.4052 -1.454 2.7682 -1.79458e-006 2.27625e-006 1.19995e-005 -1.4531 -1.795 1.2713 -3.14782e-008 -1.8942e-006 2.2414e-007 -5.6954 0.21 2.1184 -3.1478e-008 -1.8942e-006 2.2414e-007 -3.9766 -1.54 2.3863 -1.79458e-006 2.27625e-006 1.19995e-005 -1.4042 -1.926 1.125 -3.14782e-008 -1.8942e-006 2.2414e-007 -2.0956 0.66 -0.3894 -4.77083e-015 0 3.18055e-015 -5.0395 -0.09 2.4971 -3.1478e-008 -1.8942e-006 2.2414e-007 -3.7921 -1.552 1.4806 -1.79458e-006 2.27625e-006 1.19995e-005 -1.4655 -1.808 0.9609 -3.14782e-008 -1.8942e-006 2.2414e-007 -4.9141 -1.269 0.3592 -3.1478e-008 -1.8942e-006 2.2414e-007 -3.1477 -1.685 0.8462 -1.79458e-006 2.27625e-006 1.19995e-005 -0.8055 -1.585 0.7955 -3.14782e-008 -1.8942e-006 2.2414e-007 8.367 -8.2066 0.5982 143.996 -6.23075 -179.067 2.1923 -43.463 -0.4932 135.884 67.006 -131.001 0.7333 -45.8593 -2.6451 24.2116 2.87262 -3.01803 -8.367 -8.2066 0.5982 -146.337 -7.06623 -179.912 -2.1923 -43.463 -0.4931 -135.782 66.9861 130.797 -0.7333 -45.8593 -2.6451 -21.9262 3.57492 1.31241 
42.3183 26.9773 -4.0532 -0.00783426 -53.1425 179.996 0 -1.186 -1.5018 -0.187464 8.09177 -0.139913 -1.42109e-014 9.964 0.2134 -0.360212 16.1839 -0.256672 -7.10543e-015 13.134 -3.2573 -0.360212 16.1839 -0.256673 -7.10543e-015 20.686 -1.6905 -4.3839e-005 -43.1454 -3.00244e-005 0 7.238 -0.1237 -2.04596e-007 -26.9367 3.54456e-009 1.7069 20.075 5.0056 2.57112 -11.0325 -65.9587 13.6458 -0.047 -4.849 1.5954 -3.86419 1.20591 28.3255 -0.9759 2.2888 -1.90452 -11.0327 9.72287 22.1583 -0.53 10.8316 51.572 -29.3665 4.85275 0.786 0.112 2.5817 -9.54166e-015 -2.22639e-014 -1.59028e-014 0.3601 -0.878 4.2331 -1.43125e-014 -2.22639e-014 -1.59028e-014 1.8127 -1.216 2.2227 -1.74931e-014 -2.22639e-014 -9.54166e-015 0.9571 1.114 1.7695 6.36111e-015 1.59028e-015 -3.18055e-015 4.1246 0.487 4.1451 -2.38542e-014 -2.38542e-014 1.59028e-014 3.4052 -1.454 2.7682 -1.11319e-014 -2.22639e-014 -9.54166e-015 1.4531 -1.795 1.2713 -1.27222e-014 -2.22639e-014 -6.36111e-015 5.6954 0.21 2.1184 -2.38542e-014 -2.38542e-014 1.59028e-014 3.9766 -1.54 2.3863 -1.11319e-014 -2.22639e-014 -9.54166e-015 1.4042 -1.926 1.125 -1.27222e-014 -2.22639e-014 -6.36111e-015 2.0956 0.66 -0.3894 6.36111e-015 1.59028e-015 -3.18055e-015 5.0395 -0.09 2.4971 -2.38542e-014 -2.38542e-014 1.59028e-014 3.7921 -1.552 1.4806 -1.11319e-014 -2.22639e-014 -9.54166e-015 1.4655 -1.808 0.9609 -1.27222e-014 -2.22639e-014 -6.36111e-015 4.9141 -1.269 0.3591 -2.38542e-014 -2.38542e-014 1.59028e-014 3.1477 -1.685 0.8462 -1.11319e-014 -2.22639e-014 -9.54166e-015 0.8055 -1.585 0.7955 -1.27222e-014 -2.22639e-014 -6.36111e-015 -1.7069 20.075 5.0056 -1.14854 -9.15125 59.4826 -13.6458 -0.047 -4.849 -2.0602 -4.26511 14.793 -28.3255 -0.9759 2.2888 -2.4704 -11.3091 -10.0411 -22.1583 -0.53 10.8316 -58.6868 -22.2904 -11.4718 -0.786 0.112 2.5817 9.16597e-007 -1.8985e-007 6.15849e-006 -0.3601 -0.878 4.2331 -7.83132e-007 -1.50297e-006 1.4832e-007 -1.8127 -1.216 2.2227 -9.14729e-008 1.31531e-007 6.21264e-006 -0.9571 1.114 1.7695 1.59028e-015 -3.18055e-015 -1.90833e-014 -4.1246 0.487 4.1451 9.16597e-007 -1.8985e-007 6.15849e-006 -3.4052 -1.454 2.7682 -7.83132e-007 -1.50297e-006 1.4832e-007 -1.4531 -1.795 1.2713 -9.14729e-008 1.31531e-007 6.21264e-006 -5.6954 0.21 2.1184 9.16597e-007 -1.8985e-007 6.15849e-006 -3.9766 -1.54 2.3863 -7.83132e-007 -1.50297e-006 1.4832e-007 -1.4042 -1.926 1.125 -9.14729e-008 1.31531e-007 6.21264e-006 -2.0956 0.66 -0.3894 1.59028e-015 -3.18055e-015 -1.90833e-014 -5.0395 -0.09 2.4971 9.16597e-007 -1.8985e-007 6.15849e-006 -3.7921 -1.552 1.4806 -7.83132e-007 -1.50297e-006 1.4832e-007 -1.4655 -1.808 0.9609 -9.14729e-008 1.31531e-007 6.21264e-006 -4.9141 -1.269 0.3592 9.16597e-007 -1.8985e-007 6.15849e-006 -3.1477 -1.685 0.8462 -7.83132e-007 -1.50297e-006 1.4832e-007 -0.8055 -1.585 0.7955 -9.14729e-008 1.31531e-007 6.21264e-006 8.367 -8.2066 0.5982 144.399 -6.23809 -179.17 2.1923 -43.463 -0.4932 135.887 67.0037 -130.99 0.7333 -45.8593 -2.6451 23.7253 2.87789 -2.68134 -8.367 -8.2066 0.5982 -146.616 -7.033 -179.866 -2.1923 -43.463 -0.4931 -135.786 66.9839 130.793 -0.7333 -45.8593 -2.6451 -21.5609 3.53386 1.06207 
42.3179 27.0467 -4.16292 -0.00787696 -53.4678 179.996 0 -1.186 -1.5018 -0.187265 8.09179 -0.140055 7.10543e-015 9.964 0.2134 -0.359787 16.184 -0.25699 7.10543e-015 13.134 -3.2573 -0.359787 16.184 -0.25699 -7.10543e-015 20.686 -1.6905 -6.29336e-007 -43.1963 -5.68736e-007 0 7.238 -0.1237 7.70463e-008 -26.9963 6.85536e-008 1.7069 20.075 5.0056 2.66239 -11.2437 -66.4933 13.6458 -0.047 -4.849 1.55523 -3.85928 1.98644 28.3255 -0.9759 2.2888 -1.92972 -11.0277 9.48213 22.1583 -0.53 10.8316 52.0201 -29.5397 5.04411 0.786 0.112 2.5817 -7.01318e-007 1.82312e-006 -2.83467e-006 0.3601 -0.878 4.2331 -1.70896e-006 -6.07268e-007 -3.26371e-006 1.8127 -1.216 2.2227 4.77083e-015 1.59028e-015 6.36111e-015 0.9571 1.114 1.7695 -1.59028e-015 -1.59028e-015 9.54166e-015 4.1246 0.487 4.1451 -7.01318e-007 1.82312e-006 -2.83467e-006 3.4052 -1.454 2.7682 -1.70896e-006 -6.07268e-007 -3.26371e-006 1.4531 -1.795 1.2713 6.36111e-015 3.18055e-015 -0 5.6954 0.21 2.1184 -7.01318e-007 1.82312e-006 -2.83467e-006 3.9766 -1.54 2.3863 -1.70896e-006 -6.07268e-007 -3.26371e-006 1.4042 -1.926 1.125 6.36111e-015 3.18055e-015 -0 2.0956 0.66 -0.3894 -1.59028e-015 -1.59028e-015 9.54166e-015 5.0395 -0.09 2.4971 -7.01318e-007 1.82312e-006 -2.83467e-006 3.7921 -1.552 1.4806 -1.70896e-006 -6.07268e-007 -3.26371e-006 1.4655 -1.808 0.9609 6.36111e-015 3.18055e-015 -0 4.9141 -1.269 0.3591 -7.01318e-007 1.82312e-006 -2.83467e-006 3.1477 -1.685 0.8462 -1.70896e-006 -6.07268e-007 -3.26371e-006 0.8055 -1.585 0.7955 6.36111e-015 3.18055e-015 -0 -1.7069 20.075 5.0056 -1.14903 -9.19818 58.6916 -13.6458 -0.047 -4.849 -2.09026 -4.29745 15.8281 -28.3255 -0.9759 2.2888 -2.63164 -11.3123 -10.3201 -22.1583 -0.53 10.8316 -58.9419 -22.405 -11.5925 -0.786 0.112 2.5817 -4.00222e-007 -1.9173e-006 -9.07294e-006 -0.3601 -0.878 4.2331 8.59391e-007 -2.04639e-006 -1.81653e-005 -1.8127 -1.216 2.2227 5.87116e-007 5.78603e-007 3.13367e-006 -0.9571 1.114 1.7695 -3.18055e-015 1.59028e-015 -0 -4.1246 0.487 4.1451 -4.00222e-007 -1.9173e-006 -9.07294e-006 -3.4052 -1.454 2.7682 8.59391e-007 -2.04639e-006 -1.81653e-005 -1.4531 -1.795 1.2713 5.87116e-007 5.78603e-007 3.13367e-006 -5.6954 0.21 2.1184 -4.00222e-007 -1.9173e-006 -9.07294e-006 -3.9766 -1.54 2.3863 8.59391e-007 -2.04639e-006 -1.81653e-005 -1.4042 -1.926 1.125 5.87116e-007 5.78603e-007 3.13367e-006 -2.0956 0.66 -0.3894 -3.18055e-015 1.59028e-015 -0 -5.0395 -0.09 2.4971 -4.00222e-007 -1.9173e-006 -9.07294e-006 -3.7921 -1.552 1.4806 8.59391e-007 -2.04639e-006 -1.81653e-005 -1.4655 -1.808 0.9609 5.87116e-007 5.78603e-007 3.13367e-006 -4.9141 -1.269 0.3592 -4.00222e-007 -1.9173e-006 -9.07294e-006 -3.1477 -1.685 0.8462 8.59391e-007 -2.04639e-006 -1.81653e-005 -0.8055 -1.585 0.7955 5.87116e-007 5.78603e-007 3.13367e-006 8.367 -8.2066 0.5982 144.802 -6.2461 -179.273 2.1923 -43.463 -0.4932 135.891 67.0012 -130.98 0.7333 -45.8593 -2.6451 23.239 2.88038 -2.34452 -8.367 -8.2066 0.5982 -146.896 -7.00001 -179.82 -2.1923 -43.463 -0.4931 -135.79 66.9817 130.788 -0.7333 -45.8593 -2.6451 -21.1956 3.49127 0.812011 
42.3175 27.1161 -4.27253 -0.00792073 -53.7931 179.996 -7.10543e-015 -1.186 -1.5018 -0.187065 8.09179 -0.140196 -1.42109e-014 9.964 0.2134 -0.359361 16.184 -0.257305 0 13.134 -3.2573 -0.359361 16.184 -0.257306 0 20.686 -1.6905 -6.84279e-006 -43.2468 -3.91585e-006 -7.10543e-015 7.238 -0.1237 -3.55488e-007 -27.0558 -1.43563e-007 1.7069 20.075 5.0056 2.75172 -11.4557 -67.0279 13.6458 -0.047 -4.849 1.51504 -3.85491 2.76673 28.3255 -0.9759 2.2888 -1.95491 -11.0226 9.24141 22.1583 -0.53 10.8316 52.4696 -29.7117 5.23731 0.786 0.112 2.5817 9.01775e-007 -7.50156e-007 3.01956e-006 0.3601 -0.878 4.2331 -1.1276e-006 -1.50133e-007 6.12586e-006 1.8127 -1.216 2.2227 5.26696e-007 -1.20104e-006 6.02613e-006 0.9571 1.114 1.7695 -1.59028e-015 0 -0 4.1246 0.487 4.1451 9.01775e-007 -7.50156e-007 3.01956e-006 3.4052 -1.454 2.7682 -1.1276e-006 -1.50133e-007 6.12586e-006 1.4531 -1.795 1.2713 5.26696e-007 -1.20104e-006 6.02613e-006 5.6954 0.21 2.1184 9.01775e-007 -7.50156e-007 3.01956e-006 3.9766 -1.54 2.3863 -1.1276e-006 -1.50133e-007 6.12586e-006 1.4042 -1.926 1.125 5.26696e-007 -1.20104e-006 6.02613e-006 2.0956 0.66 -0.3894 -1.59028e-015 0 -0 5.0395 -0.09 2.4971 9.01775e-007 -7.50156e-007 3.01956e-006 3.7921 -1.552 1.4806 -1.1276e-006 -1.50133e-007 6.12586e-006 1.4655 -1.808 0.9609 5.26696e-007 -1.20104e-006 6.02613e-006 4.9141 -1.269 0.3591 9.01775e-007 -7.50156e-007 3.01956e-006 3.1477 -1.685 0.8462 -1.1276e-006 -1.50133e-007 6.12586e-006 0.8055 -1.585 0.7955 5.26696e-007 -1.20104e-006 6.02613e-006 -1.7069 20.075 5.0056 -1.1502 -9.24506 57.9008 -13.6458 -0.047 -4.849 -2.11971 -4.33032 16.8627 -28.3255 -0.9759 2.2888 -2.7929 -11.3147 -10.5992 -22.1583 -0.53 10.8316 -59.1974 -22.5191 -11.714 -0.786 0.112 2.5817 -7.83716e-007 -1.50334e-006 1.45242e-007 -0.3601 -0.878 4.2331 -3.20443e-008 -1.8952e-006 2.16599e-007 -1.8127 -1.216 2.2227 9.62717e-007 1.70705e-007 -6.086e-006 -0.9571 1.114 1.7695 0 0 -0 -4.1246 0.487 4.1451 -7.83716e-007 -1.50334e-006 1.45242e-007 -3.4052 -1.454 2.7682 -3.20443e-008 -1.8952e-006 2.16599e-007 -1.4531 -1.795 1.2713 9.62717e-007 1.70705e-007 -6.086e-006 -5.6954 0.21 2.1184 -7.83716e-007 -1.50334e-006 1.45242e-007 -3.9766 -1.54 2.3863 -3.20443e-008 -1.8952e-006 2.16599e-007 -1.4042 -1.926 1.125 9.62717e-007 1.70705e-007 -6.086e-006 -2.0956 0.66 -0.3894 0 0 -0 -5.0395 -0.09 2.4971 -7.83716e-007 -1.50334e-006 1.45242e-007 -3.7921 -1.552 1.4806 -3.20443e-008 -1.8952e-006 2.16599e-007 -1.4655 -1.808 0.9609 9.62717e-007 1.70705e-007 -6.086e-006 -4.9141 -1.269 0.3592 -7.83716e-007 -1.50334e-006 1.45242e-007 -3.1477 -1.685 0.8462 -3.20443e-008 -1.8952e-006 2.16599e-007 -0.8055 -1.585 0.7955 9.62717e-007 1.70705e-007 -6.086e-006 8.367 -8.2066 0.5982 145.205 -6.25484 -179.376 2.1923 -43.463 -0.4932 135.895 66.9989 -130.969 0.7333 -45.8593 -2.6451 22.7527 2.88016 -2.00774 -8.367 -8.2066 0.5982 -147.175 -6.96717 -179.774 -2.1923 -43.463 -0.4931 -135.795 66.9795 130.784 -0.7333 -45.8593 -2.6451 -20.8305 3.44713 0.562141 
